<svg width="200" height="200" viewBox="0 0 200 200" fill="none" xmlns="http://www.w3.org/2000/svg">
<path d="M183.333 100C183.333 146.024 146.024 183.333 100 183.333M183.333 100C183.333 53.9763 146.024 16.6667 100 16.6667M183.333 100H16.6667M100 183.333C53.9763 183.333 16.6667 146.024 16.6667 100M100 183.333C120.844 160.514 132.69 130.9 133.333 100C132.69 69.1003 120.844 39.4863 100 16.6667M100 183.333C79.156 160.514 67.3104 130.9 66.6667 100C67.3104 69.1003 79.156 39.4863 100 16.6667M16.6667 100C16.6667 53.9763 53.9763 16.6667 100 16.6667" stroke="#1E1E1E" stroke-width="4" stroke-linecap="round" stroke-linejoin="round"/>
</svg>
